<svg xmlns="http://www.w3.org/2000/svg" width="960" height="555" viewBox="0 0 960 555"><defs><marker id="a" markerWidth="8" markerHeight="8" refX="7" refY="4" orient="auto"><path d="M0,0 L8,4 L0,8 Z" fill="#385365"/></marker></defs><rect width="100%" height="100%" fill="white"/><rect x="20" y="35" width="270" height="125" rx="5" fill="#F6F8FA" stroke="#91A8B5"/><path d="M25 35 H285 Q290 35 290 40 V68 H20 V40 Q20 35 25 35" fill="#1C3B50"/><text x="32" y="58" text-anchor="start" font-family="Arial,sans-serif" font-size="16" fill="white">Public static pages</text><text x="32" y="91" text-anchor="start" font-family="Arial,sans-serif" font-size="14" fill="#172D3E">Ten Web-to-Lead forms</text><text x="32" y="112" text-anchor="start" font-family="Arial,sans-serif" font-size="14" fill="#172D3E">Shared config and form engine</text><text x="32" y="133" text-anchor="start" font-family="Arial,sans-serif" font-size="14" fill="#172D3E">Org-specific field IDs</text><rect x="345" y="35" width="270" height="125" rx="5" fill="#F6F8FA" stroke="#91A8B5"/><path d="M350 35 H610 Q615 35 615 40 V68 H345 V40 Q345 35 350 35" fill="#1C3B50"/><text x="357" y="58" text-anchor="start" font-family="Arial,sans-serif" font-size="16" fill="white">Salesforce intake</text><text x="357" y="91" text-anchor="start" font-family="Arial,sans-serif" font-size="14" fill="#172D3E">Lead submissions</text><text x="357" y="112" text-anchor="start" font-family="Arial,sans-serif" font-size="14" fill="#172D3E">Four after-save Flows</text><text x="357" y="133" text-anchor="start" font-family="Arial,sans-serif" font-size="14" fill="#172D3E">Native conversion</text><rect x="670" y="35" width="270" height="125" rx="5" fill="#F6F8FA" stroke="#91A8B5"/><path d="M675 35 H935 Q940 35 940 40 V68 H670 V40 Q670 35 675 35" fill="#1C3B50"/><text x="682" y="58" text-anchor="start" font-family="Arial,sans-serif" font-size="16" fill="white">Relationship and booking</text><text x="682" y="91" text-anchor="start" font-family="Arial,sans-serif" font-size="14" fill="#172D3E">Account and Contact reused</text><text x="682" y="112" text-anchor="start" font-family="Arial,sans-serif" font-size="14" fill="#172D3E">One event Opportunity</text><text x="682" y="133" text-anchor="start" font-family="Arial,sans-serif" font-size="14" fill="#172D3E">One Primary Contact Role</text><path d="M290 96 L345 96" fill="none" stroke="#385365" stroke-width="2" marker-end="url(#a)"/><text x="318" y="81" text-anchor="middle" font-family="Arial,sans-serif" font-size="13" fill="#172D3E">POST</text><path d="M615 96 L670 96" fill="none" stroke="#385365" stroke-width="2" marker-end="url(#a)"/><text x="642" y="81" text-anchor="middle" font-family="Arial,sans-serif" font-size="13" fill="#172D3E">Convert</text><rect x="20" y="315" width="270" height="140" rx="5" fill="#F6F8FA" stroke="#91A8B5"/><path d="M25 315 H285 Q290 315 290 320 V348 H20 V320 Q20 315 25 315" fill="#1C3B50"/><text x="32" y="338" text-anchor="start" font-family="Arial,sans-serif" font-size="16" fill="white">NTE Management app</text><text x="32" y="371" text-anchor="start" font-family="Arial,sans-serif" font-size="14" fill="#172D3E">Master Panel and Home</text><text x="32" y="392" text-anchor="start" font-family="Arial,sans-serif" font-size="14" fill="#172D3E">Native records and reports</text><text x="32" y="413" text-anchor="start" font-family="Arial,sans-serif" font-size="14" fill="#172D3E">Relationship and retry LWCs</text><text x="32" y="434" text-anchor="start" font-family="Arial,sans-serif" font-size="14" fill="#172D3E">Operates through Apex APIs</text><rect x="345" y="315" width="270" height="140" rx="5" fill="#F6F8FA" stroke="#91A8B5"/><path d="M350 315 H610 Q615 315 615 320 V348 H345 V320 Q345 315 350 315" fill="#1C3B50"/><text x="357" y="338" text-anchor="start" font-family="Arial,sans-serif" font-size="16" fill="white">Apex services and audit</text><text x="357" y="371" text-anchor="start" font-family="Arial,sans-serif" font-size="14" fill="#172D3E">Pricing and supplementary data</text><text x="357" y="392" text-anchor="start" font-family="Arial,sans-serif" font-size="14" fill="#172D3E">Approval and email dispatch</text><text x="357" y="413" text-anchor="start" font-family="Arial,sans-serif" font-size="14" fill="#172D3E">Payment request snapshots</text><text x="357" y="434" text-anchor="start" font-family="Arial,sans-serif" font-size="14" fill="#172D3E">After-commit queue workers</text><rect x="670" y="315" width="270" height="140" rx="5" fill="#F6F8FA" stroke="#91A8B5"/><path d="M675 315 H935 Q940 315 940 320 V348 H670 V320 Q670 315 675 315" fill="#1C3B50"/><text x="682" y="338" text-anchor="start" font-family="Arial,sans-serif" font-size="16" fill="white">External delivery</text><text x="682" y="371" text-anchor="start" font-family="Arial,sans-serif" font-size="14" fill="#172D3E">Salesforce outbound email</text><text x="682" y="392" text-anchor="start" font-family="Arial,sans-serif" font-size="14" fill="#172D3E">Stripe fixed Payment Links</text><text x="682" y="413" text-anchor="start" font-family="Arial,sans-serif" font-size="14" fill="#172D3E">Manual payment confirmation</text><text x="682" y="434" text-anchor="start" font-family="Arial,sans-serif" font-size="14" fill="#172D3E">External logo and pack URLs</text><path d="M290 375 L345 375" fill="none" stroke="#385365" stroke-width="2" marker-end="url(#a)"/><text x="318" y="360" text-anchor="middle" font-family="Arial,sans-serif" font-size="13" fill="#172D3E">Apex</text><path d="M615 375 L670 375" fill="none" stroke="#385365" stroke-width="2" marker-end="url(#a)"/><text x="643" y="359" text-anchor="middle" font-family="Arial,sans-serif" font-size="13" fill="#172D3E">API</text><path d="M480 160 L480 315" fill="none" stroke="#385365" stroke-width="2" marker-end="url(#a)"/><text x="565" y="240" text-anchor="middle" font-family="Arial,sans-serif" font-size="13" fill="#172D3E">Flow invokes service</text><path d="M805 160 L550 315" fill="none" stroke="#385365" stroke-width="2" marker-end="url(#a)"/><text x="774" y="236" text-anchor="middle" font-family="Arial,sans-serif" font-size="13" fill="#172D3E">Saved booking facts</text><text x="20" y="505" text-anchor="start" font-family="Arial,sans-serif" font-size="16" fill="#172D3E">Outside the integration: general attendee ticketing, quote/invoice creation, refunds and binary logo storage.</text><text x="20" y="535" text-anchor="start" font-family="Arial,sans-serif" font-size="15" fill="#172D3E">Custom metadata holds destinations and merchant selection; protected external credentials hold the API key.</text></svg>